<svg width="19" height="19" viewBox="0 0 19 19" fill="none" xmlns="http://www.w3.org/2000/svg">
<path d="M2.88232 13.7296V15.0057C2.88232 15.3147 3.13281 15.5652 3.44186 15.5652H15.5581C15.8671 15.5652 16.1176 15.3147 16.1176 15.0057V13.7296H2.88232Z" fill="#939598"/>
<path d="M19 6.61721C19 5.62033 18.189 4.80929 17.1921 4.80929C16.1952 4.80929 15.3843 5.62033 15.3843 6.61721C15.3843 7.09644 15.572 7.53248 15.8776 7.85632C15.3341 8.46427 14.545 8.84798 13.6674 8.84798C12.2468 8.84798 11.057 7.8437 10.7691 6.50806C11.1015 6.18002 11.3079 5.7247 11.3079 5.22198C11.3079 4.22511 10.4969 3.41406 9.5 3.41406C8.50312 3.41406 7.69208 4.22511 7.69208 5.22198C7.69208 5.7247 7.89864 6.18002 8.23089 6.50806C7.943 7.8437 6.75318 8.84798 5.33259 8.84798C4.45501 8.84798 3.66586 8.46427 3.12241 7.85632C3.42798 7.53248 3.61584 7.09644 3.61584 6.61721C3.61584 5.62033 2.8048 4.80929 1.80792 4.80929C0.811043 4.80929 0 5.62033 0 6.61721C0 7.48116 0.609261 8.20509 1.42059 8.3828C1.58106 9.70715 1.89113 11.3207 2.48981 12.6105H16.5102C17.1089 11.3207 17.4189 9.70715 17.5794 8.3828C18.3907 8.20494 19 7.48116 19 6.61721Z" fill="#939598"/>
</svg>
